<svg width="306" height="409" viewBox="0 0 306 409" fill="none" xmlns="http://www.w3.org/2000/svg">
<rect x="104" y="104" width="98" height="98" fill="#D9D9D9" stroke="black" stroke-width="2"/>
<rect x="111" y="111" width="84" height="84" fill="black"/>
<rect x="207" y="104" width="98" height="98" fill="#D9D9D9" stroke="black" stroke-width="2"/>
<rect x="214" y="111" width="84" height="84" fill="black"/>
<rect x="104" y="1" width="98" height="98" fill="#D9D9D9" stroke="black" stroke-width="2"/>
<rect x="111" y="8" width="84" height="84" fill="black"/>
<rect x="1" y="104" width="98" height="98" fill="#D9D9D9" stroke="black" stroke-width="2"/>
<rect x="8" y="111" width="84" height="84" fill="black"/>
<rect x="1" y="310" width="98" height="98" fill="#D9D9D9" stroke="black" stroke-width="2"/>
<rect x="8" y="317" width="84" height="84" fill="black"/>
<rect x="104" y="207" width="98" height="98" fill="#D9D9D9" stroke="black" stroke-width="2"/>
<rect x="111" y="214" width="84" height="84" fill="black"/>
<rect x="104" y="310" width="98" height="98" fill="#D9D9D9" stroke="black" stroke-width="2"/>
<rect x="111" y="317" width="84" height="84" fill="black"/>
<rect x="207" y="310" width="98" height="98" fill="#D9D9D9" stroke="black" stroke-width="2"/>
<rect x="214" y="317" width="84" height="84" fill="black"/>
</svg>
